<svg xmlns="http://www.w3.org/2000/svg" width="29.092" height="23.143" viewBox="0 0 29.092 23.143">
  <g id="Group_6089" data-name="Group 6089" transform="translate(-4163 -972.286)">
    <path id="Shape" d="M7.807,23.143a.539.539,0,0,1,0-1.078H28.559a.539.539,0,0,1,0,1.078ZM.533,15.788a.539.539,0,0,1,0-1.078H28.559a.539.539,0,0,1,0,1.078ZM7.807,8.433a.539.539,0,0,1,0-1.078H28.559a.539.539,0,0,1,0,1.078ZM.533,1.078A.535.535,0,0,1,0,.539.535.535,0,0,1,.533,0H28.559a.536.536,0,0,1,.533.539.536.536,0,0,1-.533.539Z" transform="translate(4163 972.286)" fill="#fff"/>
  </g>
</svg>
