<svg id="translate" xmlns="http://www.w3.org/2000/svg" width="19.452" height="19.452" viewBox="0 0 19.452 19.452">
  <path id="Path_21" data-name="Path 21" d="M4.878,7.515,4.35,9.079H3L5.264,3H6.825L9.079,9.079H7.66L7.131,7.515H4.878Zm1.987-.895L6.039,4.162H5.98L5.154,6.621H6.866Z" transform="translate(0.647 0.647)" fill="#183ab8"/>
  <path id="Path_22" data-name="Path 22" d="M0,2.432A2.432,2.432,0,0,1,2.432,0h8.51a2.432,2.432,0,0,1,2.432,2.432V6.079h3.647A2.432,2.432,0,0,1,19.452,8.51v8.51a2.432,2.432,0,0,1-2.432,2.432H8.51a2.432,2.432,0,0,1-2.432-2.432V13.374H2.432A2.432,2.432,0,0,1,0,10.942ZM2.432,1.216A1.216,1.216,0,0,0,1.216,2.432v8.51a1.216,1.216,0,0,0,1.216,1.216h8.51a1.216,1.216,0,0,0,1.216-1.216V2.432a1.216,1.216,0,0,0-1.216-1.216ZM11.11,13.368a8.893,8.893,0,0,0,.766,1.029A9.429,9.429,0,0,1,8.51,15.967a6.113,6.113,0,0,1,.675,1.054A10.646,10.646,0,0,0,12.694,15.2a8.711,8.711,0,0,0,3.562,1.79,5.469,5.469,0,0,1,.765-1.082,8.606,8.606,0,0,1-3.429-1.561A9.835,9.835,0,0,0,15.563,11h1.458V9.726H13.374V11h.93a7.931,7.931,0,0,1-1.546,2.59,7.375,7.375,0,0,1-.5-.6,2.417,2.417,0,0,1-1.143.377Z" fill="#183ab8"/>
</svg>
